<svg width="137" height="129" viewBox="0 0 137 129" fill="none" xmlns="http://www.w3.org/2000/svg">
<path d="M64.267 1.04761C44.3489 2.25825 26.1466 11.5815 14.2449 26.679C2.85649 41.118 -1.50139 59.6874 2.33774 77.3322C6.70491 97.3301 20.9552 114.129 40.6673 122.521C60.4427 130.933 83.4079 129.837 102.185 119.577C119.071 110.349 130.885 94.7352 134.634 76.6856C137.755 61.6509 134.969 45.9293 126.819 32.6694C116.5 15.8614 98.5864 4.39865 78.2904 1.61523C73.6067 0.972138 68.7143 0.77737 64.267 1.04761ZM73.6241 6.70747C82.1455 7.44114 89.862 9.57036 97.1113 13.1829C102.638 15.9292 107.187 19.0878 111.719 23.31C114.123 25.5646 115.543 27.0785 117.442 29.425C123.36 36.7617 127.334 45.3305 129.033 54.4472C129.694 58.0224 129.905 60.3175 129.925 64.2338C129.944 68.1501 129.755 70.4472 129.129 74.0287C127.324 84.2857 122.815 93.5222 115.561 101.828C114.103 103.495 110.19 107.222 108.436 108.612C99.6989 115.533 89.9478 119.875 79.088 121.677C75.2645 122.312 72.8935 122.503 68.7085 122.523C64.5235 122.544 62.1508 122.376 58.3212 121.779C47.4443 120.083 37.6513 115.836 28.8471 109.001C27.0799 107.628 23.1297 103.94 21.6564 102.287C13.0916 92.6768 8.38019 82.054 7.08499 69.4066C6.89731 67.668 6.86962 62.0023 7.0403 60.262C7.62113 54.0068 8.96473 48.5134 11.1948 43.2143C13.6646 37.3774 16.8656 32.3022 21.2896 27.241C22.7467 25.5739 26.6606 21.8471 28.4143 20.4569C39.1465 11.9554 51.4367 7.3328 65.4008 6.5588C66.8552 6.47218 72.0633 6.56599 73.6241 6.70747Z" fill="black"/>
<path d="M68.2949 12.0217C67.8321 12.2327 67.3603 12.7618 67.236 13.2196C67.0909 13.7074 67.1121 18.0511 67.2521 18.5375C67.7236 20.0958 69.9704 20.383 70.9547 19.0164C71.206 18.6673 71.2059 18.6573 71.1923 15.8642L71.1786 13.0612L70.8709 12.6552C70.3297 11.9222 69.137 11.6199 68.2957 12.0216L68.2949 12.0217Z" fill="black" stroke="white" stroke-width="0.699999"/>
<path d="M54.208 13.5517C53.461 13.8635 52.9071 14.8502 53.0583 15.595C53.1987 16.2901 54.3133 20.0122 54.4516 20.26C54.9089 21.0729 55.849 21.4758 56.744 21.2528C57.66 21.0097 58.2889 20.2711 58.2952 19.4162C58.2927 18.8993 57.049 14.6312 56.7729 14.2151C56.4543 13.7296 55.778 13.4048 55.0928 13.4082C54.7766 13.4198 54.3763 13.4813 54.208 13.5517Z" fill="black" stroke="white" stroke-width="0.699999"/>
<path d="M82.1774 13.9716C81.4729 14.3329 81.3058 14.6617 80.6324 17.0705C79.9899 19.3499 79.9082 19.8871 80.122 20.4825C80.3358 21.0977 81.3087 21.7291 82.0256 21.7256C82.8057 21.7218 83.7091 21.0713 83.9585 20.3444C84.3846 19.0899 85.1602 16.0146 85.1582 15.6071C85.1529 14.5237 84.2953 13.7625 83.1252 13.7682C82.7774 13.7799 82.4193 13.8512 82.1774 13.9716L82.1774 13.9716Z" fill="black" stroke="white" stroke-width="0.699999"/>
<path d="M40.7393 18.6372C39.9188 18.9892 39.438 19.8464 39.5897 20.6806C39.6764 21.1871 41.9717 24.9034 42.5012 25.4078C43.5709 26.4164 45.4133 25.9303 45.8388 24.5366C46.0151 23.9493 45.9714 23.6712 45.6098 22.997C45.163 22.1742 43.3146 19.2807 43.0815 19.0532C42.4883 18.4597 41.5387 18.2854 40.7392 18.6372L40.7393 18.6372Z" fill="black" stroke="white" stroke-width="0.699999"/>
<path d="M95.1904 19.1663C94.6225 19.4574 94.455 19.6868 93.221 21.7305C91.9871 23.7842 91.8411 24.103 91.8438 24.6497C91.8614 26.24 94.059 27.104 95.2554 26.0048C95.7801 25.5151 98.0383 21.6672 98.1095 21.1202C98.3237 19.6381 96.568 18.4737 95.1904 19.1663Z" fill="black" stroke="white" stroke-width="0.699999"/>
<path d="M28.921 27.0745C28.2269 27.4158 27.8397 27.9942 27.8327 28.7199C27.8345 29.0777 27.8994 29.4154 28.0163 29.6136C28.2397 30.0101 31.5647 33.0753 32.0932 33.3709C32.5266 33.6173 33.3597 33.6728 33.8753 33.4815C34.5488 33.2396 35.1666 32.3917 35.1632 31.6959C35.1623 31.507 35.0657 31.1696 34.9594 30.9514C34.7039 30.4358 31.1987 27.2025 30.6812 26.9963C30.1319 26.7803 29.468 26.8133 28.9211 27.0745L28.921 27.0745Z" fill="black" stroke="white" stroke-width="0.699999"/>
<path d="M106.14 27.1146C105.751 27.2854 102.288 30.6124 102.069 31.021C101.693 31.7386 101.77 32.5036 102.29 33.1471C102.799 33.7609 103.886 34.024 104.686 33.702C105.117 33.5309 108.496 30.2739 108.82 29.7257C108.956 29.4864 109.049 29.148 109.048 28.9094C109.034 28.1541 108.439 27.322 107.742 27.0769C107.33 26.9298 106.519 26.9537 106.14 27.1146L106.14 27.1146Z" fill="black" stroke="white" stroke-width="0.699999"/>
<path d="M20.8542 37.3919C19.9281 37.7146 19.5396 38.0345 19.3006 38.7216C19.0509 39.3987 19.2441 40.1134 19.8053 40.6176C20.0171 40.8154 21.1589 41.4858 22.3531 42.1061C24.5091 43.2188 24.5197 43.2287 25.226 43.2253C25.8479 43.2222 25.9638 43.1918 26.3208 42.9118C27.035 42.3616 27.1498 42.1423 27.1459 41.3273C27.1407 40.2737 26.9396 40.0758 24.6988 38.884C23.7158 38.362 22.6695 37.8105 22.3631 37.6728C21.8136 37.4071 21.1489 37.2911 20.8542 37.3919Z" fill="black" stroke="white" stroke-width="0.699999"/>
<path d="M114.624 37.4008C114.045 37.6521 110.419 39.797 110.135 40.0569C109.159 40.9264 109.452 42.5353 110.699 43.1355C111.079 43.3225 111.279 43.3514 111.743 43.3093C112.238 43.2672 112.575 43.1065 114.372 42.0739C115.497 41.4223 116.58 40.7709 116.758 40.611C117.724 39.811 117.632 38.2906 116.564 37.6001C116.057 37.2745 115.139 37.1796 114.624 37.4008L114.624 37.4008Z" fill="black" stroke="white" stroke-width="0.699999"/>
<path d="M83.3577 54.8692C73.9053 59.9053 66.0302 64.1584 65.8623 64.3084C65.2326 64.878 65.0895 65.8031 65.4938 66.5666C65.8555 67.2208 66.5027 68.0725 66.8624 68.3491C67.3069 68.7047 67.898 68.851 68.4985 68.7685C68.8882 68.7069 69.2037 68.5364 70.107 67.876C77.8279 62.2817 100.455 45.8396 100.539 45.7796C100.591 45.7296 100.612 45.6897 100.591 45.6898C100.559 45.7 92.8101 49.8232 83.3577 54.8692L83.3577 54.8692Z" fill="black" stroke="white" stroke-width="0.699999"/>
<path d="M15.4856 49.7538C15.3698 49.7742 15.1697 49.815 15.0328 49.8455C14.9063 49.8659 14.6121 50.0563 14.3811 50.2463C13.3209 51.156 13.5714 52.8148 14.8497 53.3751C15.0927 53.4733 16.3382 53.8052 17.6153 54.1071C20.1799 54.7108 20.5595 54.7289 21.2741 54.2781C22.4091 53.5668 22.4005 51.7975 21.2586 51.1073C21.0048 50.9495 20.0019 50.6562 18.3556 50.2766C16.9835 49.9453 15.8227 49.6925 15.77 49.6928C15.7278 49.703 15.6016 49.7234 15.4856 49.7538Z" fill="black" stroke="white" stroke-width="0.699999"/>
<path d="M118.219 50.5141C116.977 50.868 115.798 51.2217 115.609 51.322C115.43 51.4124 115.147 51.6722 114.979 51.9016C114.738 52.2507 114.697 52.4199 114.7 52.9765C114.703 53.5332 114.746 53.7019 115 54.0486C115.361 54.5736 115.953 54.859 116.659 54.8556C117.292 54.8525 121.44 53.7388 122.06 53.4077C122.786 53.0165 123.182 52.1001 122.967 51.3258C122.71 50.4325 121.916 49.8598 120.957 49.8745C120.694 49.8858 119.462 50.17 118.219 50.5141Z" fill="black" stroke="white" stroke-width="0.699999"/>
<path d="M118.848 62.5882C117.815 62.6429 117.636 62.6836 117.257 62.924C116.154 63.6252 115.992 65.0176 116.935 65.8976C117.549 66.4711 117.844 66.5095 120.827 66.3955C123.378 66.3036 123.42 66.2933 123.903 66.0226C124.261 65.8221 124.46 65.6223 124.659 65.2337C125.055 64.4763 124.978 63.7709 124.427 63.1573C123.897 62.5734 123.485 62.476 121.651 62.5049C120.755 62.5193 119.49 62.5552 118.847 62.5882L118.848 62.5882Z" fill="black" stroke="white" stroke-width="0.699999"/>
<path d="M14.1287 63.2988C12.9378 63.3742 12.4856 63.5852 12.0673 64.2731C11.8267 64.6619 11.7958 64.8012 11.8407 65.3577C11.8749 65.8843 11.9391 66.0629 12.2146 66.3697C12.872 67.1418 12.9036 67.1417 15.9922 67.0968C18.9436 67.0425 19.1964 67.0016 19.7527 66.4919C20.4453 65.8623 20.5344 64.6691 19.9512 63.986C19.7921 63.788 19.443 63.5313 19.1894 63.4033C18.7562 63.2066 18.5979 63.1875 16.9219 63.2156C15.9416 63.2304 14.6768 63.2663 14.1288 63.2988L14.1287 63.2988Z" fill="black" stroke="white" stroke-width="0.699999"/>
</svg>
